<svg id="Layer_1" xmlns="http://www.w3.org/2000/svg" viewBox="0 0 5999 1029">
<path fill="#4FF9B8" opacity="1.000000" stroke="none" 
	d="
M226.057709,781.943115 
	C206.512177,787.010437 186.997299,792.199829 167.412384,797.109985 
	C148.522858,801.845642 129.777634,807.959717 110.577423,810.454712 
	C85.284126,813.741333 58.883076,802.667175 46.080608,778.807129 
	C42.836136,772.760376 39.150391,766.786499 37.034595,760.331055 
	C32.132652,745.375122 34.852493,730.595398 39.381836,715.920288 
	C42.919022,704.459778 45.739349,692.779724 49.000481,681.231812 
	C53.530083,665.192200 58.379414,649.239990 62.698505,633.144836 
	C65.690384,621.995483 67.811859,610.614624 70.701279,599.435181 
	C73.646622,588.039307 77.212036,576.804749 80.224121,565.424927 
	C84.529442,549.159241 88.469330,532.796875 92.772491,516.530579 
	C96.027824,504.225220 99.607185,492.005554 103.380127,478.542450 
	C93.468941,468.610443 82.573265,457.948578 71.974464,446.999329 
	C61.159416,435.826630 50.575291,424.427887 40.007328,413.019470 
	C33.471668,405.964050 27.946011,398.279663 24.212101,389.230804 
	C21.736864,383.232208 17.712826,377.892548 14.858764,372.026031 
	C9.973091,361.983521 7.284021,351.241211 5.558524,340.229065 
	C5.315686,338.679321 4.213957,337.264099 2.754892,335.893311 
	C2.000000,319.291534 2.000000,302.583069 2.347392,284.654907 
	C2.822615,283.165619 3.028252,282.903778 3.056368,282.624146 
	C3.084411,282.345215 2.934537,282.048431 2.862668,281.759460 
	C2.575112,281.839630 2.287556,281.919830 2.000000,282.000000 
	C2.000000,281.111115 2.000000,280.222198 2.766682,279.034973 
	C7.173399,275.655548 5.955508,271.623993 5.851000,267.088715 
	C6.042296,265.403137 5.787745,264.302490 6.119143,263.422516 
	C11.929644,247.994476 17.436388,232.451508 26.073105,218.242477 
	C34.330799,204.657013 43.660370,191.904785 55.668903,181.475952 
	C63.105965,175.017227 71.630821,169.829514 79.376617,163.703613 
	C91.979729,153.736206 106.379974,147.837051 121.694160,143.568924 
	C134.563202,139.982269 147.270248,135.814392 160.092896,132.126282 
	C160.136780,132.348740 160.680710,132.364883 160.680710,132.364883 
	C160.680710,132.364883 159.872696,132.082855 160.421539,131.680939 
	C183.926407,125.514801 206.886917,119.768379 229.836517,113.978722 
	C241.093521,111.138840 252.381866,108.403893 263.563324,105.288742 
	C278.007751,101.264534 292.302460,96.698982 306.765594,92.746841 
	C324.597260,87.874199 342.563568,83.496346 360.421844,78.718292 
	C387.607727,71.444603 414.723602,63.908619 441.921387,56.680225 
	C460.655060,51.701344 479.495514,47.125648 498.252899,42.234081 
	C510.868408,38.944202 523.422119,35.417374 536.001709,31.998310 
	C536.000000,32.000072 535.992310,32.006462 536.475464,31.505180 
	C551.149475,27.714935 565.340271,24.425974 580.302246,21.105795 
	C600.913330,15.684866 620.763489,10.331842 640.577209,4.847154 
	C642.500183,4.314846 644.197754,2.968479 646.000000,2.000000 
	C665.375122,2.000000 684.750244,2.000000 705.320557,2.735774 
	C708.416443,3.752373 710.321960,4.239444 712.215149,4.195273 
	C712.826843,4.181000 713.406006,2.771356 714.000000,2.000008 
	C714.888916,2.000000 715.777771,2.000000 717.333374,2.000000 
	C715.442871,5.500998 718.313354,5.153064 720.470154,5.749081 
	C740.818115,11.372007 759.030212,21.580706 775.979675,33.690620 
	C788.181519,42.408485 799.738159,52.258694 808.262390,65.061142 
	C813.905701,73.536781 821.269714,81.106827 825.606445,90.163094 
	C835.080627,109.947624 843.442383,129.913971 845.702148,152.584412 
	C848.207275,177.715668 844.779053,201.354614 837.876526,225.154022 
	C832.412720,243.993118 828.206055,263.193146 823.060730,282.129486 
	C819.177246,296.421661 814.429993,310.478943 810.539124,324.769257 
	C805.266174,344.135529 800.554565,363.653900 795.401550,383.053741 
	C788.828796,407.798828 781.987061,432.472382 775.392029,457.211639 
	C770.658081,474.969879 766.260559,492.818115 761.486816,510.565399 
	C757.147644,526.697205 752.304504,542.694580 748.051819,558.848083 
	C744.134888,573.726562 741.078674,588.836243 736.987732,603.663208 
	C728.514832,634.372131 719.554077,664.946167 710.913574,695.609375 
	C708.716614,703.405945 706.936584,711.321350 705.019409,719.195374 
	C697.192505,751.340515 679.942078,778.005249 655.787415,799.922729 
	C642.906677,811.610474 629.383057,822.971863 611.998474,828.432983 
	C601.127991,831.847900 590.802856,836.982178 580.160339,841.159668 
	C578.744324,841.715515 576.899048,841.177856 574.729248,841.187866 
	C573.680359,841.267395 573.154846,841.305603 572.629333,841.343811 
	C573.112061,841.536011 573.594849,841.728149 574.077576,841.920288 
	C543.385376,847.721802 512.849792,847.387268 483.736267,835.438049 
	C467.708252,828.859619 451.959534,821.341919 437.915436,810.295837 
	C415.343658,792.542480 396.781097,770.818176 376.225555,751.091431 
	C370.366669,745.468689 365.361694,743.198181 357.010193,745.883728 
	C338.609161,751.800781 319.797882,756.449219 301.126404,761.513489 
	C295.740845,762.974182 290.204956,763.887817 284.834961,765.397339 
	C266.892548,770.441040 248.998795,775.657776 231.068481,780.745117 
	C229.835434,781.094971 228.454865,780.924866 226.727936,781.149048 
	C225.804642,781.272217 225.296310,781.242920 224.788010,781.213501 
	C225.211258,781.456726 225.634491,781.699951 226.057709,781.943115 
M516.656250,676.357849 
	C520.747070,680.259888 524.513794,684.590515 528.993958,687.977661 
	C539.366272,695.819580 551.911804,692.409668 556.446777,680.524353 
	C558.755310,674.473816 560.048340,668.039551 561.872192,661.799622 
	C564.801270,651.778809 567.926453,641.813049 570.709106,631.752258 
	C572.848267,624.018127 574.429138,616.130310 576.537537,608.386902 
	C581.111755,591.587891 585.978027,574.868164 590.511353,558.058472 
	C594.601807,542.890808 598.323669,527.624023 602.371033,512.444336 
	C604.828979,503.225586 607.744141,494.128540 610.191406,484.907166 
	C614.442383,468.888916 618.406860,452.794708 622.652710,436.775055 
	C625.419128,426.337463 628.642578,416.020020 631.351562,405.568451 
	C634.904968,391.858765 637.940491,378.013092 641.598877,364.332886 
	C644.642151,352.952850 648.499268,341.790802 651.560913,330.415131 
	C654.532776,319.372711 656.713013,308.117523 659.674072,297.071838 
	C663.145020,284.123749 667.429565,271.389252 670.743469,258.404449 
	C676.627441,235.349121 681.182312,211.962601 689.539673,189.549973 
	C691.688110,183.788406 692.274536,177.262238 692.584717,171.037796 
	C693.124207,160.212143 685.058777,152.925247 674.224976,154.754440 
	C661.768311,156.857635 649.377441,159.540497 637.133728,162.660919 
	C625.169495,165.710098 613.480713,169.822845 601.574402,173.120026 
	C582.257324,178.469467 562.884338,183.621887 543.491455,188.690994 
	C528.418457,192.630936 513.235291,196.152222 498.179230,200.153503 
	C473.806732,206.630661 449.513824,213.406830 425.153748,219.931412 
	C417.525970,221.974396 409.518219,222.878433 402.162994,225.598175 
	C388.734039,230.563766 374.820709,233.604797 361.061890,237.253036 
	C349.855286,240.224533 338.432709,242.384689 327.235992,245.389465 
	C315.348419,248.579666 303.660400,252.507065 291.801910,255.813721 
	C275.112305,260.467499 258.329132,264.784790 241.619019,269.366516 
	C232.469513,271.875183 223.442917,274.843140 214.263474,277.229156 
	C198.585449,281.304443 182.488190,284.082062 167.214447,289.299866 
	C154.528549,293.633667 150.691116,308.135101 159.400497,317.322784 
	C161.687088,319.734955 163.696945,322.415710 166.042847,324.764404 
	C186.001999,344.747040 205.979477,364.711639 226.016861,384.615814 
	C234.259186,392.803375 242.880112,400.622314 250.874512,409.040375 
	C253.728821,412.045898 256.671539,411.784058 259.748199,411.256897 
	C263.472900,410.618774 267.057007,409.190552 270.726624,408.195190 
	C290.652924,402.790039 310.559723,397.309540 330.529449,392.069244 
	C340.762421,389.384003 351.505920,388.184326 361.320099,384.468262 
	C377.102631,378.492157 393.520599,375.199738 409.685852,370.838623 
	C420.834442,367.830963 432.378021,365.953613 443.125061,361.919434 
	C449.323334,359.592773 455.296722,358.318512 461.398712,359.220703 
	C478.191406,361.703461 490.115265,374.742920 487.104797,391.717682 
	C484.176208,408.230774 479.353821,424.421631 475.064850,440.675262 
	C471.993225,452.315460 468.282410,463.786072 465.143707,475.409821 
	C463.399139,481.870636 462.607819,488.596161 460.745605,495.016388 
	C456.778168,508.694733 453.050903,522.425537 448.570435,535.986755 
	C443.023041,552.777344 439.952240,570.382751 435.713318,587.612000 
	C434.844177,591.144592 435.482513,593.706421 438.184937,596.448669 
	C452.368713,610.841553 466.229004,625.552612 480.363190,639.995056 
	C492.009430,651.895264 503.880951,663.575012 516.656250,676.357849 
z"/>
<path fill="#FDFDFD" opacity="1.000000" stroke="none" 
	d="
M1611.948486,18.925074 
	C1612.730591,18.980751 1613.512573,19.036428 1614.908447,19.545033 
	C1615.776855,20.452705 1616.161133,20.637646 1616.674805,20.552769 
	C1631.172852,25.882856 1645.946899,30.575777 1660.098145,36.706551 
	C1677.250488,44.137447 1693.868652,52.494877 1709.793945,62.723606 
	C1725.136597,72.578171 1740.341431,82.599525 1754.351807,94.068535 
	C1770.510986,107.296471 1785.795898,121.549530 1800.051270,137.088638 
	C1812.573242,150.738388 1823.768555,165.264450 1834.587158,180.071732 
	C1844.653442,193.849213 1854.558960,207.906052 1861.086426,224.001022 
	C1863.901001,230.941528 1868.435181,237.170044 1871.940674,243.851883 
	C1873.411743,246.656158 1874.240967,249.797165 1875.770264,253.872726 
	C1872.093506,254.360580 1869.638916,254.968369 1867.183838,254.970657 
	C1809.524902,255.024231 1751.865845,254.965851 1694.207153,255.092194 
	C1689.029175,255.103531 1686.060303,253.473572 1682.947266,248.991928 
	C1679.050415,243.382156 1673.081055,239.241043 1668.178467,234.295578 
	C1653.209473,219.196457 1635.944824,207.243179 1617.455933,196.936172 
	C1613.443970,194.699677 1609.214111,192.758316 1605.503052,190.097488 
	C1596.704956,183.789246 1586.341431,181.327789 1576.369385,178.152222 
	C1560.266846,173.024429 1544.107300,167.521912 1527.545898,164.557007 
	C1513.333252,162.012573 1498.530151,162.546005 1483.976807,162.217133 
	C1476.421021,162.046402 1468.720825,162.255615 1461.298462,163.530930 
	C1448.159058,165.788544 1435.075439,168.578598 1422.168823,171.919769 
	C1410.423706,174.960251 1398.826538,178.697784 1387.396118,182.777954 
	C1381.292114,184.956787 1375.642212,188.439529 1369.850098,191.454071 
	C1349.136597,202.234497 1330.142212,215.369919 1312.656372,230.971481 
	C1298.922363,243.225418 1286.614868,256.891754 1276.397949,271.765930 
	C1264.690186,288.810486 1253.403931,306.571136 1247.020630,326.731323 
	C1242.959839,339.556274 1237.242065,351.982910 1234.456665,365.054688 
	C1230.645630,382.940460 1228.851440,401.163940 1228.728149,419.662994 
	C1228.578857,442.086334 1230.313477,464.281860 1234.723389,486.074615 
	C1237.359497,499.101501 1243.252197,511.506592 1248.046143,524.051697 
	C1257.166382,547.918091 1270.527466,569.068359 1286.600220,589.075500 
	C1297.575195,602.737000 1309.632690,615.035217 1322.816284,626.076355 
	C1338.678711,639.360779 1356.693604,649.514893 1375.057739,659.437927 
	C1394.800171,670.105835 1415.928101,674.972229 1436.903809,680.205322 
	C1455.597412,684.869080 1475.144165,687.620483 1494.695557,686.479553 
	C1516.389160,685.213562 1537.839478,681.980530 1558.844849,676.207397 
	C1562.873169,675.100220 1566.835083,673.735657 1570.889160,672.740234 
	C1585.100342,669.250488 1597.546509,661.884827 1610.616943,655.696533 
	C1625.082764,648.847656 1637.942993,639.828491 1650.357910,630.277893 
	C1663.297119,620.324097 1675.156128,608.981140 1685.784546,596.309204 
	C1696.190063,583.903320 1705.527222,570.900818 1714.157959,557.239258 
	C1723.748901,542.057800 1729.419434,525.267883 1736.720093,507.289215 
	C1732.259033,507.289215 1728.777588,507.289215 1725.296143,507.289215 
	C1649.972900,507.289215 1574.649658,507.300781 1499.326416,507.255768 
	C1495.477051,507.253479 1491.627930,506.765137 1487.418945,506.478638 
	C1487.418945,459.532257 1487.418945,413.646973 1487.418945,367.824951 
	C1494.553101,365.732788 1894.500366,365.020142 1909.009644,367.196106 
	C1909.701050,376.699768 1909.467651,386.676941 1911.356812,396.234558 
	C1913.911865,409.160065 1913.720093,422.147705 1912.701294,434.899414 
	C1911.296387,452.484497 1911.838867,470.263794 1907.460327,487.664886 
	C1902.745361,506.401886 1899.425781,525.485718 1895.079956,544.321960 
	C1893.390503,551.644226 1890.953979,558.859924 1888.171387,565.851013 
	C1881.650024,582.234924 1876.124390,599.247070 1867.539307,614.510742 
	C1859.353394,629.064636 1852.741699,644.640930 1841.700928,657.712036 
	C1832.849854,668.190735 1825.781982,680.161133 1817.656616,691.274963 
	C1814.584839,695.476562 1810.851074,699.211792 1807.272339,703.021790 
	C1796.457764,714.535950 1786.122925,726.578979 1774.551636,737.281372 
	C1763.773804,747.250183 1751.647339,755.760254 1740.120728,764.920166 
	C1735.473511,768.613159 1731.181152,772.888672 1726.140869,775.926025 
	C1710.291504,785.477295 1694.460449,795.138428 1678.050659,803.655579 
	C1664.692383,810.588867 1650.590210,816.127197 1636.658081,821.898315 
	C1631.000977,824.241577 1624.922241,825.568298 1619.032349,827.347656 
	C1607.196899,830.923462 1595.509644,835.153076 1583.482788,837.888611 
	C1569.967896,840.962769 1555.972778,841.968323 1542.509155,845.212219 
	C1530.714966,848.053833 1518.773193,846.464600 1506.873657,848.299072 
	C1493.725830,850.326050 1479.734131,850.737000 1466.212646,847.283203 
	C1462.518188,846.339600 1458.364258,847.377441 1454.493164,846.909912 
	C1439.840820,845.140381 1425.082764,843.819275 1410.624268,840.997803 
	C1397.568726,838.450134 1384.156372,836.830505 1371.932251,830.761292 
	C1368.726807,829.169800 1364.946655,828.687317 1361.393188,827.854370 
	C1347.303223,824.551147 1333.916992,819.342773 1320.939331,813.021912 
	C1308.857178,807.137329 1296.530518,801.691101 1284.781860,795.200195 
	C1265.153687,784.355835 1245.875977,772.711304 1228.609741,758.393616 
	C1210.371704,743.270203 1191.895142,728.266846 1176.908325,709.588501 
	C1166.610107,696.753662 1154.841309,684.973267 1145.613892,671.437256 
	C1134.723145,655.461304 1122.629150,640.139709 1115.184448,621.872131 
	C1110.493896,610.362671 1103.181396,599.900452 1098.722778,588.322449 
	C1091.109619,568.552734 1082.047241,549.207581 1078.261475,528.110291 
	C1076.994019,521.047241 1075.527344,514.019836 1074.259033,506.956879 
	C1071.823364,493.391876 1068.469238,479.897247 1067.312378,466.219818 
	C1065.671021,446.813873 1064.616943,427.232910 1065.284668,407.794495 
	C1065.879028,390.490479 1068.388794,373.141754 1071.433838,356.058807 
	C1075.779907,331.677460 1080.127808,307.187408 1088.923340,283.879822 
	C1094.475952,269.165588 1099.914551,254.311691 1106.890503,240.258133 
	C1114.047729,225.839233 1122.948364,212.279114 1131.217651,198.421555 
	C1135.285889,191.603897 1139.242554,184.660095 1143.962036,178.302063 
	C1155.921631,162.190063 1168.901001,146.893814 1182.771606,132.383896 
	C1193.430176,121.234032 1204.886475,110.994293 1216.539429,100.841095 
	C1230.063599,89.057518 1244.426636,78.674072 1259.090454,68.558739 
	C1277.585938,55.800339 1298.038574,46.539398 1317.861572,36.177570 
	C1323.848389,33.048168 1330.371460,30.854736 1336.798096,28.672344 
	C1366.144531,18.706738 1395.326538,8.069271 1426.563965,5.311872 
	C1427.532104,5.226417 1428.384644,3.832606 1428.645508,2.524373 
	C1430.133423,2.000000 1432.266724,2.000000 1435.183105,2.704597 
	C1437.310791,2.939462 1438.655396,2.469728 1440.000000,1.999998 
	C1472.708496,2.000000 1505.416870,2.000000 1539.206299,2.771039 
	C1551.485718,5.658071 1562.685181,7.768636 1573.882324,9.891981 
	C1581.235840,11.286480 1588.585938,12.699459 1596.271729,14.745728 
	C1601.720215,16.566555 1606.834351,17.745815 1611.948486,18.925074 
z"/>
<path fill="#FDFDFD" opacity="1.000000" stroke="none" 
	d="
M5324.937500,1032.000000 
	C5324.326172,1028.070557 5324.936523,1024.141235 5324.937500,1020.211731 
	C5324.984863,845.977295 5324.707520,671.741882 5325.300293,497.509430 
	C5325.379883,474.176605 5328.219727,450.772644 5334.978027,427.885834 
	C5339.216797,413.530365 5340.377930,398.076355 5346.584473,384.327515 
	C5355.437012,364.715851 5363.473145,344.815521 5375.173340,326.351379 
	C5387.258301,307.281372 5400.787109,289.692322 5415.973145,273.232269 
	C5422.134766,266.553955 5428.758301,260.199158 5435.785645,254.446808 
	C5446.743652,245.477066 5457.668457,236.256943 5469.626465,228.771606 
	C5484.317383,219.575897 5499.477539,211.146591 5515.382812,203.839172 
	C5535.832031,194.444305 5556.689453,187.567871 5578.642090,182.829254 
	C5588.516602,180.697708 5598.316895,177.318634 5608.363770,176.402145 
	C5628.727539,174.544571 5649.193359,172.824463 5669.613770,172.870010 
	C5688.409668,172.911957 5707.306152,174.536682 5725.956543,176.994308 
	C5739.235352,178.744064 5752.201660,182.943481 5765.267578,186.209045 
	C5781.587402,190.288055 5797.510742,195.279785 5812.249023,203.826981 
	C5820.795898,208.783798 5830.627441,211.574478 5839.020020,216.738510 
	C5852.728516,225.173477 5865.753906,234.721222 5879.020508,243.867767 
	C5882.245605,246.091400 5885.233398,248.656006 5888.421387,250.936554 
	C5906.033691,263.535797 5919.749512,280.062347 5933.162598,296.665771 
	C5942.460449,308.176208 5950.690430,320.697968 5958.209473,333.467224 
	C5974.629395,361.351532 5985.951660,391.423615 5993.923828,422.743469 
	C5995.380859,428.466705 5995.788574,434.452820 5997.139648,440.209717 
	C5997.590332,442.129089 5999.476074,443.711792 6001.352539,444.724243 
	C6002.000000,447.428711 6002.000000,450.857422 6001.166016,455.112671 
	C6000.356445,459.215363 6000.380859,462.491455 6000.456055,466.602600 
	C6001.169434,469.587555 5997.442383,472.736359 6002.000000,474.000000 
	C6002.000000,476.777771 6002.000000,479.555573 6001.518555,482.995667 
	C6001.357910,484.438690 6001.679199,485.219330 6002.000000,486.000000 
	C6002.000000,503.375122 6002.000000,520.750244 6001.437988,539.242188 
	C6001.250488,540.906006 6001.625488,541.453003 6002.000000,542.000000 
	C6002.000000,544.777771 6002.000000,547.555603 6001.335938,550.893372 
	C6001.114746,552.968933 6001.557129,554.484497 6002.000000,556.000000 
	C6002.000000,559.428711 6002.000000,562.857422 6001.241211,567.069153 
	C6000.106445,568.961243 5999.730469,570.070312 5999.354492,571.179199 
	C6000.236328,570.786072 6001.118164,570.393005 6002.000000,569.999939 
	C6002.000000,570.888916 6002.000000,571.777771 6001.395508,572.643005 
	C6000.236328,574.019775 5999.681641,575.420227 5999.126953,576.820679 
	C6000.084473,576.546997 6001.042480,576.273438 6002.000000,575.999939 
	C6002.000000,576.888916 6002.000000,577.777771 6001.356445,578.705200 
	C5999.524414,580.605042 5997.771973,582.323975 5997.258301,584.355896 
	C5995.939941,589.570435 5995.678711,595.081848 5994.089355,600.192932 
	C5988.926270,616.791382 5983.460938,633.298523 5977.889160,649.765625 
	C5975.891602,655.668396 5973.808105,661.658752 5970.817383,667.087708 
	C5960.975098,684.951355 5951.025879,702.660645 5938.781738,719.195618 
	C5925.955566,736.517273 5911.527344,751.988098 5895.810547,766.557068 
	C5886.344238,775.332336 5876.600098,783.612610 5865.636719,790.416565 
	C5849.136719,800.656982 5833.564453,813.163879 5815.852539,820.485962 
	C5793.144531,829.873474 5770.251465,839.578125 5745.527832,843.787537 
	C5719.218262,848.267029 5692.826660,851.566284 5666.217773,852.874084 
	C5652.423340,853.552124 5638.665039,853.038452 5624.867188,850.360901 
	C5611.042480,847.678040 5596.747559,847.520203 5582.750000,845.593384 
	C5560.890137,842.584351 5540.624023,834.155640 5520.275391,826.141907 
	C5512.276367,822.991699 5504.349121,819.659241 5495.672363,816.117188 
	C5495.672363,820.836365 5495.672852,824.487549 5495.672852,828.138672 
	C5495.672852,892.435852 5495.667480,956.733093 5495.686523,1021.030273 
	C5495.687500,1024.686890 5495.890625,1028.343384 5496.000000,1032.000000 
	C5439.291504,1032.000000 5382.583496,1032.000000 5324.937500,1032.000000 
M5794.512207,386.375366 
	C5778.577148,364.502686 5758.447754,347.765381 5734.072754,335.878723 
	C5711.777344,325.006165 5688.455078,320.254883 5663.681152,320.872711 
	C5643.612305,321.373291 5624.055664,322.286987 5604.852051,329.994049 
	C5584.567383,338.134644 5566.377441,348.510590 5550.590820,363.743042 
	C5533.589844,380.147339 5520.808594,398.976105 5512.573242,421.074127 
	C5504.042480,443.964966 5497.567871,467.388000 5496.492676,491.837952 
	C5495.385254,516.999634 5495.207031,542.110718 5501.419434,567.005676 
	C5504.762207,580.399170 5508.345215,593.632202 5512.932129,606.617615 
	C5514.800293,611.906250 5516.093262,617.623474 5519.036133,622.265747 
	C5528.583984,637.328186 5538.525879,652.018494 5551.852051,664.362366 
	C5562.064941,673.822388 5573.206543,681.953064 5585.110840,688.502014 
	C5603.091309,698.394226 5623.333496,702.813599 5643.585938,704.591492 
	C5657.926758,705.850281 5672.754883,704.804504 5687.041992,702.644958 
	C5707.723145,699.518921 5727.528809,693.564087 5745.967285,682.495056 
	C5771.531738,667.147827 5790.721680,646.499390 5804.476562,620.423035 
	C5812.783691,604.674377 5820.946289,588.850586 5823.410156,570.834045 
	C5825.118652,558.345520 5828.338379,545.915283 5828.603027,533.410767 
	C5829.050293,512.265930 5828.895996,490.960175 5826.751465,469.951141 
	C5824.667969,449.542145 5818.829590,429.702179 5809.393066,411.195129 
	C5805.225586,403.021759 5802.455566,394.010284 5794.512207,386.375366 
z"/>
<path fill="#FCFCFC" opacity="1.000000" stroke="none" 
	d="
M4365.062500,1.999999 
	C4365.705566,4.950781 4365.154785,7.901434 4365.153320,10.852366 
	C4365.107422,100.842163 4365.116699,190.831985 4365.116699,280.821808 
	C4365.116699,283.771790 4365.116211,286.721802 4365.116211,289.671783 
	C4365.683105,289.935730 4366.250000,290.199707 4366.816895,290.463654 
	C4368.352539,288.688477 4370.590332,287.161316 4371.317871,285.100708 
	C4381.766602,255.517365 4400.124512,231.628723 4425.189453,213.364349 
	C4446.538086,197.808167 4469.939453,186.046875 4497.270508,185.239075 
	C4519.852051,184.571655 4542.440430,184.125717 4565.719727,183.564941 
	C4566.261719,187.102814 4566.974609,189.597183 4566.978027,192.092560 
	C4567.044434,238.420517 4567.056641,284.748657 4567.000488,331.076691 
	C4566.989746,339.911102 4565.764648,340.991699 4556.244629,340.996704 
	C4496.584961,341.028137 4436.924805,341.012573 4377.265137,341.012573 
	C4373.687500,341.012573 4370.109863,341.012573 4365.116211,341.012573 
	C4365.116211,346.008881 4365.116699,349.868011 4365.116699,353.727142 
	C4365.116699,446.716644 4365.104980,539.706116 4365.140137,632.695618 
	C4365.142578,639.267578 4365.534180,645.838440 4365.662598,652.411438 
	C4365.947266,667.005188 4373.271973,678.172668 4383.350586,687.749451 
	C4386.100586,690.362854 4389.917969,692.473206 4393.598145,693.378296 
	C4408.012695,696.923035 4422.533203,699.487244 4437.581543,699.123840 
	C4459.566406,698.593079 4481.572754,698.944214 4503.570312,699.009277 
	C4512.155762,699.034607 4512.969727,699.686951 4512.986328,707.906311 
	C4513.072754,750.234680 4513.042480,792.563354 4512.982422,834.891846 
	C4512.979492,837.132141 4512.341309,839.371582 4511.924805,842.096375 
	C4509.363281,842.434631 4507.148438,842.979675 4504.933105,842.982239 
	C4463.270996,843.030701 4421.586426,843.837585 4379.957031,842.668640 
	C4358.852051,842.075989 4337.730957,838.699890 4317.768066,830.465820 
	C4308.953613,826.830261 4299.162598,825.335083 4290.720703,821.073425 
	C4274.606445,812.938477 4260.108887,802.639526 4246.873535,789.792725 
	C4232.489746,775.830994 4223.024414,759.307617 4214.017090,742.103638 
	C4211.954590,738.164185 4210.207031,733.940002 4209.094238,729.644958 
	C4204.896484,713.446899 4200.071289,697.324036 4197.323730,680.865417 
	C4195.113770,667.631348 4194.954102,653.954041 4194.931152,640.471619 
	C4194.765137,543.483093 4194.868164,446.494110 4194.865234,349.505280 
	C4194.865234,347.232727 4194.617676,344.960175 4194.402832,341.263184 
	C4175.922363,340.747528 4157.710938,341.225037 4139.518066,340.987946 
	C4121.307617,340.750671 4103.056152,341.756195 4084.282227,340.277008 
	C4084.282227,287.903717 4084.282227,236.449341 4084.282227,184.160233 
	C4121.327637,184.160233 4157.872070,184.160233 4194.719238,184.160233 
	C4194.719238,123.470688 4194.719238,63.614136 4194.359375,2.878789 
	C4250.708496,2.000000 4307.416504,2.000000 4365.062500,1.999999 
z"/>
<path fill="#10644F" opacity="1.000000" stroke="none" 
	d="
M580.302246,21.105789 
	C580.589294,16.367409 585.152649,17.074465 588.214661,16.123560 
	C600.119873,12.426469 612.212952,9.337210 624.201050,5.899728 
	C625.620422,5.492740 626.824036,4.333550 628.063843,2.761524 
	C633.400024,2.000000 638.800049,2.000000 645.100037,2.000000 
	C644.197754,2.968479 642.500183,4.314846 640.577209,4.847154 
	C620.763489,10.331842 600.913330,15.684866 580.302246,21.105789 
z"/>
<path fill="#606F6F" opacity="1.000000" stroke="none" 
	d="
M1595.937500,14.104164 
	C1588.585938,12.699459 1581.235840,11.286480 1573.882324,9.891981 
	C1562.685181,7.768636 1551.485718,5.658071 1540.143555,2.771039 
	C1547.385864,2.000000 1554.771606,2.000000 1563.078735,2.000000 
	C1563.325806,5.466639 1565.891602,5.391047 1568.107788,5.872802 
	C1576.899658,7.783885 1585.675293,9.769925 1595.181763,12.409096 
	C1595.916870,13.428055 1595.927124,13.766111 1595.937500,14.104164 
z"/>
<path fill="#0C5844" opacity="1.000000" stroke="none" 
	d="
M2.000000,268.833313 
	C2.815545,267.912201 3.631090,267.824432 5.062247,267.756500 
	C5.955508,271.623993 7.173399,275.655548 2.766682,278.368317 
	C2.000000,275.222229 2.000000,272.444427 2.000000,268.833313 
z"/>
<path fill="#5F6666" opacity="1.000000" stroke="none" 
	d="
M6000.456055,466.602600 
	C6000.404785,465.767578 6001.213867,465.802612 6001.606934,465.901306 
	C6002.000000,468.133301 6002.000000,470.266602 6002.000000,473.199951 
	C5997.442383,472.736359 6001.169434,469.587555 6000.456055,466.602600 
z"/>
<path fill="#585858" opacity="1.000000" stroke="none" 
	d="
M1439.333374,1.999998 
	C1438.655396,2.469728 1437.310791,2.939462 1435.983154,2.704597 
	C1436.888916,2.000000 1437.777832,2.000000 1439.333374,1.999998 
z"/>
<path fill="#585555" opacity="1.000000" stroke="none" 
	d="
M6002.000000,555.333374 
	C6001.557129,554.484497 6001.114746,552.968933 6001.335938,551.726685 
	C6002.000000,552.888916 6002.000000,553.777771 6002.000000,555.333374 
z"/>
<path fill="#585555" opacity="1.000000" stroke="none" 
	d="
M6002.000000,541.500000 
	C6001.625488,541.453003 6001.250488,540.906006 6001.437988,540.179504 
	C6002.000000,540.000000 6002.000000,541.000000 6002.000000,541.500000 
z"/>
<path fill="#5F6666" opacity="1.000000" stroke="none" 
	d="
M6002.000000,485.500000 
	C6001.679199,485.219330 6001.357910,484.438690 6001.518555,483.829010 
	C6002.000000,484.000000 6002.000000,485.000000 6002.000000,485.500000 
z"/>
<path fill="#0C5844" opacity="1.000000" stroke="none" 
	d="
M2.000000,282.500000 
	C2.287556,281.919830 2.575112,281.839630 2.862668,281.759460 
	C2.934537,282.048431 3.084411,282.345215 3.056368,282.624146 
	C3.028252,282.903778 2.822615,283.165619 2.347392,283.717621 
	C2.000000,284.000000 2.000000,283.000000 2.000000,282.500000 
z"/>
<path fill="#FDFDFD" opacity="1.000000" stroke="none" 
	d="
M3578.273682,510.043274 
	C3573.836426,494.589142 3569.143066,480.016327 3565.134033,465.257538 
	C3560.710693,448.974670 3556.984131,432.503784 3552.812988,416.150757 
	C3551.213135,409.877533 3549.223389,403.703705 3547.153809,396.601166 
	C3545.447754,398.022430 3543.658936,398.753723 3543.343750,399.892731 
	C3540.207520,411.228790 3537.459473,422.672455 3534.319824,434.007568 
	C3529.282715,452.192963 3523.776855,470.251770 3518.958496,488.493408 
	C3515.607178,501.181824 3513.386475,514.167236 3510.098389,526.874512 
	C3506.179443,542.019348 3501.370361,556.934326 3497.472412,572.084045 
	C3492.461670,591.562256 3489.245605,611.595459 3482.953369,630.628113 
	C3474.076904,657.478149 3469.869141,685.427734 3461.532471,712.378967 
	C3455.174805,732.932373 3450.559082,754.022461 3445.084229,774.851685 
	C3439.843262,794.790833 3434.447998,814.689270 3429.215088,834.630310 
	C3427.050293,842.879211 3427.161865,842.990112 3419.055664,843.001953 
	C3392.057373,843.041199 3365.059326,843.016541 3338.061035,843.016479 
	C3309.729736,843.016418 3281.398193,843.037964 3253.066895,843.002869 
	C3244.881348,842.992737 3244.800781,842.941467 3242.509033,834.981323 
	C3240.521484,828.078857 3238.938965,821.056335 3236.836182,814.191406 
	C3231.844238,797.893677 3226.449707,781.717529 3221.582031,765.383667 
	C3213.731445,739.041077 3206.128906,712.624146 3198.505859,686.214355 
	C3190.580322,658.756531 3182.890381,631.229919 3174.832031,603.811462 
	C3170.133301,587.823120 3164.781006,572.027893 3159.959961,556.074158 
	C3153.362549,534.241760 3146.847412,512.382324 3140.556641,490.460052 
	C3131.582520,459.187256 3122.997070,427.802551 3113.936768,396.555206 
	C3109.759521,382.149353 3104.851562,367.955322 3100.260010,353.670074 
	C3100.163330,353.369080 3099.750488,353.147675 3099.705566,352.855225 
	C3096.289795,330.670624 3086.786377,310.258850 3081.005859,288.753571 
	C3076.861816,273.337585 3073.121826,257.856720 3067.638672,242.715958 
	C3060.903320,224.118057 3056.939453,204.516403 3051.437500,184.085068 
	C3056.124268,184.085068 3059.683350,184.085068 3063.242676,184.085068 
	C3112.906006,184.085068 3162.569336,184.083252 3212.232666,184.086472 
	C3223.325195,184.087189 3223.180420,184.139313 3226.321289,194.472458 
	C3231.960938,213.026306 3237.950439,231.474640 3243.488525,250.057938 
	C3247.052002,262.014557 3249.818604,274.209015 3253.399658,286.159821 
	C3257.457764,299.703461 3262.112549,313.067078 3266.335693,326.562866 
	C3268.359863,333.032013 3269.809326,339.680908 3271.829834,346.151245 
	C3276.227295,360.231659 3280.953857,374.209686 3285.292480,388.307617 
	C3288.158936,397.620789 3291.132568,406.958069 3293.072021,416.485352 
	C3295.649658,429.148254 3300.622559,440.917328 3304.837402,453.001465 
	C3308.126221,462.430511 3310.263428,472.255249 3313.128906,481.839478 
	C3316.502441,493.122711 3320.296387,504.282104 3323.569092,515.593201 
	C3327.947266,530.725220 3331.717041,546.036926 3336.271240,561.113403 
	C3340.818115,576.165222 3345.993896,591.027649 3350.957031,605.952087 
	C3351.325195,607.058044 3352.203613,607.994080 3353.375000,609.848694 
	C3354.554443,608.181152 3355.612549,607.325806 3355.819824,606.298523 
	C3361.262451,579.371399 3367.369385,552.659302 3375.812256,526.435120 
	C3380.279297,512.559753 3381.815430,497.767639 3385.319336,483.548096 
	C3389.390625,467.024811 3394.666260,450.791168 3398.517578,434.222198 
	C3403.757812,411.675568 3409.262207,389.247040 3415.945068,367.057373 
	C3420.448242,352.105408 3422.637695,336.471527 3426.361084,321.264862 
	C3429.008545,310.453033 3432.747559,299.911560 3435.523193,289.126953 
	C3438.370605,278.063965 3440.455078,266.806366 3443.205566,255.716278 
	C3447.039307,240.258194 3451.129639,224.862778 3455.213379,209.467941 
	C3457.389648,201.264771 3459.782959,193.119217 3462.191162,184.546600 
	C3520.800049,184.546600 3579.311523,184.546600 3638.795166,184.546600 
	C3643.565918,202.944473 3648.333984,221.302460 3653.086182,239.664444 
	C3657.782471,257.809143 3662.681152,275.905060 3667.088379,294.119812 
	C3671.519043,312.431946 3675.275879,330.906708 3679.659912,349.230743 
	C3683.319580,364.526886 3687.510010,379.695312 3691.365967,394.945435 
	C3693.498291,403.379608 3695.335693,411.888275 3697.464844,420.323273 
	C3702.174072,438.980591 3707.107178,457.582336 3711.705078,476.266693 
	C3714.360107,487.056213 3716.259277,498.033905 3718.992920,508.801361 
	C3724.534912,530.633545 3730.469482,552.365784 3736.113525,574.172607 
	C3737.522217,579.614868 3738.438965,585.184387 3739.942383,592.435059 
	C3742.040283,589.790527 3743.164795,588.966003 3743.460205,587.909607 
	C3746.601074,576.675293 3749.373779,565.332947 3752.733398,554.166504 
	C3755.298584,545.639954 3759.208740,537.487061 3761.385742,528.880920 
	C3766.612305,508.216644 3772.663330,487.867950 3780.000732,467.831696 
	C3784.403809,455.807678 3786.889893,443.093964 3790.597412,430.798767 
	C3793.423828,421.426575 3797.117188,412.313507 3799.874023,402.923370 
	C3802.832520,392.846954 3804.825928,382.485992 3807.814453,372.419708 
	C3812.859131,355.427399 3818.397461,338.582153 3823.651855,321.651367 
	C3829.969727,301.294006 3836.578613,281.016632 3842.374268,260.510315 
	C3847.864502,241.084473 3852.428467,221.403305 3860.175293,202.668030 
	C3861.554199,199.333206 3862.165527,195.666290 3862.989746,192.119797 
	C3864.822510,184.231873 3864.785889,184.132370 3872.696289,184.103912 
	C3889.694824,184.042755 3906.694092,184.085083 3923.692871,184.085068 
	C3957.690674,184.085052 3991.688477,184.085068 4025.686279,184.085068 
	C4028.956299,184.085068 4032.226074,184.085068 4036.995850,184.085068 
	C4035.264893,191.382599 4034.131592,197.652832 4032.282715,203.704453 
	C4022.844971,234.595535 4013.070557,265.384247 4003.739990,296.307190 
	C4000.041992,308.563965 3997.420654,321.142181 3993.885254,333.452484 
	C3989.626465,348.283661 3984.900879,362.980652 3980.406982,377.744629 
	C3974.503174,397.139526 3968.582275,416.529480 3962.770264,435.951996 
	C3961.159912,441.333588 3959.969727,446.839417 3958.482422,452.259644 
	C3954.706787,466.021240 3950.930420,479.783142 3947.045410,493.514008 
	C3943.130615,507.349548 3939.192627,521.180359 3935.062988,534.952637 
	C3931.401855,547.161987 3927.418457,559.274414 3923.669678,571.458069 
	C3922.223145,576.159729 3921.121094,580.966736 3919.705322,585.678589 
	C3914.010010,604.632324 3908.174316,623.544189 3902.559326,642.521423 
	C3900.438721,649.689209 3898.979248,657.052551 3896.861328,664.221191 
	C3892.346191,679.503235 3887.463379,694.676941 3882.992920,709.971558 
	C3880.134766,719.750610 3877.938477,729.722900 3875.097656,739.507629 
	C3871.290771,752.621826 3866.953369,765.582886 3863.205566,778.713013 
	C3859.688965,791.033875 3856.811279,803.536621 3853.333496,815.869446 
	C3850.792236,824.881226 3847.734131,833.747253 3844.917236,842.643982 
	C3784.438965,842.643982 3725.180664,842.643982 3665.135254,842.643982 
	C3664.117432,840.514771 3662.438232,838.011841 3661.686279,835.255981 
	C3658.160645,822.337891 3654.792725,809.374329 3651.554688,796.380737 
	C3647.922852,781.805542 3644.678955,767.131836 3640.918945,752.590698 
	C3636.978760,737.352722 3632.511475,722.251648 3628.495605,707.032349 
	C3625.952393,697.394653 3623.929688,687.620605 3621.461426,677.961914 
	C3618.617920,666.834839 3615.546143,655.765991 3612.564209,644.674377 
	C3609.022705,631.501831 3605.464111,618.333923 3601.926025,605.160522 
	C3597.514648,588.737183 3592.912109,572.361572 3588.772949,555.869751 
	C3585.022705,540.927368 3581.783691,525.856689 3578.273682,510.043274 
z"/>
<path fill="#FDFDFD" opacity="1.000000" stroke="none" 
	d="
M4744.083984,220.110962 
	C4755.634277,214.355194 4766.916504,209.591873 4777.496582,203.590683 
	C4787.780762,197.757690 4798.540527,193.277344 4809.782715,190.147552 
	C4827.248535,185.285492 4844.739258,180.030792 4862.573730,177.097046 
	C4885.363770,173.348114 4908.514160,172.020630 4931.703125,172.563095 
	C4955.103516,173.110474 4978.440430,174.450287 5001.161133,180.429138 
	C5020.189453,185.436264 5040.185547,187.537064 5057.884277,196.702225 
	C5075.383789,205.764099 5093.752441,212.820679 5110.729492,223.343628 
	C5125.125488,232.266556 5137.529785,243.719666 5152.091797,252.174942 
	C5153.174316,252.803543 5153.907227,254.023163 5154.832031,254.938461 
	C5161.402832,261.442596 5168.094238,267.829559 5174.534668,274.460358 
	C5189.739746,290.115753 5202.916992,307.318054 5213.776367,326.288452 
	C5217.979492,333.629608 5223.176270,340.465149 5226.789551,348.068665 
	C5239.841309,375.529236 5250.968750,403.585358 5255.915039,433.958466 
	C5258.603027,450.462158 5262.633301,466.800415 5263.042969,483.548370 
	C5263.555664,504.503021 5264.057617,525.545715 5262.703613,546.429749 
	C5261.671387,562.348083 5257.834961,578.094910 5255.077637,593.888672 
	C5251.290039,615.588684 5244.156250,636.014282 5235.568359,656.451782 
	C5226.383301,678.310242 5213.887695,697.721863 5200.708496,716.867798 
	C5192.741211,728.442200 5183.558594,739.203796 5173.532227,749.372131 
	C5163.576172,759.468811 5153.771973,769.695923 5142.606934,778.336243 
	C5128.550781,789.213867 5114.842285,800.704834 5098.298340,808.026917 
	C5092.035645,810.798767 5086.534668,815.270325 5080.314453,818.167297 
	C5072.298340,821.900757 5063.826660,824.643005 5055.694824,828.144714 
	C5037.230469,836.096069 5018.187988,842.178772 4998.375488,845.522339 
	C4987.442871,847.367310 4976.376465,848.591064 4965.321777,849.502380 
	C4948.913574,850.855103 4932.691406,854.081482 4916.041504,853.122253 
	C4891.801758,851.725830 4867.808594,848.611023 4843.781250,845.270935 
	C4815.284668,841.309509 4789.270508,830.108704 4763.456055,818.680298 
	C4741.287109,808.865845 4721.167969,795.115479 4702.560547,779.521423 
	C4693.800293,772.179504 4686.241699,763.420532 4677.918945,755.535278 
	C4659.564941,738.147034 4644.779785,718.031006 4632.413086,696.108215 
	C4623.041992,679.496094 4615.184570,662.261169 4608.112793,644.427917 
	C4600.423828,625.037476 4596.005371,605.065186 4591.456055,585.024353 
	C4589.353027,575.761108 4589.190918,566.040100 4588.367188,556.507874 
	C4587.138672,542.305420 4585.716797,528.101562 4585.148926,513.867554 
	C4584.861328,506.658295 4586.312500,499.385498 4586.892578,492.134674 
	C4588.733398,469.121521 4589.838379,445.976532 4595.109375,423.427307 
	C4601.422852,396.418182 4611.074219,370.420837 4624.004395,345.961884 
	C4634.759766,325.617371 4647.184570,306.054474 4662.376953,288.590454 
	C4670.140137,279.666809 4679.110840,271.805634 4687.144531,263.103149 
	C4698.802246,250.474777 4712.666992,240.625671 4726.632324,230.895752 
	C4732.035156,227.131866 4737.870117,223.988037 4744.083984,220.110962 
M4759.019531,547.171692 
	C4759.815918,552.658875 4760.305176,558.212219 4761.469238,563.620056 
	C4764.293945,576.739258 4765.618164,590.575562 4770.856934,602.691711 
	C4779.451660,622.569336 4789.208008,641.864746 4805.471680,657.605774 
	C4820.535645,672.186218 4836.270508,685.036194 4855.741699,692.685425 
	C4869.660645,698.153748 4883.900391,703.120667 4898.947754,704.467773 
	C4943.904785,708.492432 4985.630371,699.307983 5022.131836,671.905823 
	C5036.866211,660.844482 5049.849121,647.690308 5058.671875,630.999878 
	C5063.426270,622.004333 5070.155762,613.829956 5073.603027,604.409973 
	C5082.074219,581.261475 5088.081543,557.317139 5088.837402,532.505493 
	C5089.692383,504.447632 5089.089844,476.533936 5082.715332,448.846375 
	C5076.522461,421.948669 5065.781250,397.517700 5047.416992,376.991150 
	C5032.788086,360.639801 5016.710938,345.698273 4995.994141,336.948273 
	C4986.852539,333.087280 4977.945801,328.476807 4968.515625,325.550659 
	C4959.997559,322.907654 4950.967773,321.471954 4942.058594,320.663727 
	C4934.154785,319.946686 4926.100586,321.105591 4918.122559,320.943787 
	C4893.939941,320.453339 4871.070801,325.419159 4849.608887,336.677429 
	C4843.796387,339.726318 4837.110840,341.713196 4832.253906,345.859467 
	C4821.332031,355.182556 4809.491211,363.362610 4800.152832,374.720642 
	C4784.792480,393.403168 4774.086914,414.271332 4766.860352,437.113586 
	C4765.423340,441.655365 4764.671387,446.422821 4763.734863,451.112427 
	C4760.388184,467.872284 4757.127441,484.700104 4757.202148,501.841095 
	C4757.265137,516.341309 4758.371582,530.837036 4759.019531,547.171692 
z"/>
<path fill="#FDFDFD" opacity="1.000000" stroke="none" 
	d="
M2378.813477,459.840942 
	C2380.374268,449.268616 2381.613037,439.540741 2383.499023,429.940094 
	C2385.083008,421.876495 2387.303223,413.929169 2389.450928,405.986938 
	C2393.554688,390.809692 2397.642334,375.653839 2405.860352,361.947662 
	C2408.549072,357.463440 2409.465576,351.939056 2412.006836,347.340302 
	C2423.326172,326.855957 2435.607422,307.126923 2450.544678,288.850800 
	C2467.712402,267.845673 2487.182129,249.567322 2509.263916,234.293381 
	C2526.214355,222.568771 2544.150879,212.405777 2562.852295,203.169449 
	C2586.922363,191.281540 2612.574219,185.781326 2637.738770,178.246643 
	C2648.584717,174.999176 2660.291748,174.593735 2671.623047,173.007797 
	C2692.383545,170.102081 2713.286621,170.717438 2734.129883,171.157547 
	C2744.928711,171.385544 2755.719238,173.095108 2766.463135,174.515579 
	C2775.817139,175.752243 2785.308594,176.755310 2794.373047,179.212372 
	C2815.427246,184.919434 2837.138916,188.811890 2856.922607,198.421112 
	C2880.626221,209.934174 2904.277588,221.789780 2924.960205,238.351929 
	C2934.630615,246.095749 2944.411621,253.684509 2953.314453,262.623627 
	C2964.918457,274.274200 2976.578125,285.873596 2986.353516,298.958099 
	C2996.720947,312.834625 3006.652344,327.065826 3014.006104,343.111694 
	C3019.611572,355.342865 3026.901123,366.779297 3030.793701,379.861084 
	C3034.903320,393.673676 3040.104492,407.194336 3043.584473,421.152710 
	C3047.363281,436.308990 3049.719971,451.759399 3051.117188,467.434875 
	C3053.350342,492.485260 3051.868896,517.529968 3052.369629,542.564087 
	C3052.598389,553.993652 3050.542725,565.567139 3048.585938,576.913757 
	C3046.726318,587.697205 3044.438965,598.538513 3040.940674,608.881104 
	C3032.951416,632.500549 3027.551514,657.203369 3013.047852,678.262573 
	C3010.463379,682.015137 3009.607910,686.971436 3006.973877,690.674622 
	C2995.747314,706.458618 2984.433350,722.197876 2972.580322,737.511658 
	C2966.201904,745.752014 2959.174316,753.645935 2951.526367,760.707214 
	C2942.437012,769.099365 2932.465820,776.556030 2922.683594,784.170044 
	C2917.243164,788.404785 2911.546143,792.349426 2905.727783,796.052673 
	C2887.452881,807.684875 2869.002930,819.261780 2848.310791,825.999512 
	C2825.270996,833.501892 2802.596924,842.401489 2778.307617,845.728088 
	C2761.835938,847.983948 2745.296387,849.466675 2728.740967,849.953796 
	C2686.166260,851.206665 2643.512207,849.965576 2602.711182,836.723755 
	C2581.390137,829.804016 2560.157715,821.815674 2540.279297,810.503601 
	C2526.133545,802.453918 2512.875977,793.289062 2499.780518,783.896362 
	C2485.059082,773.337219 2471.879883,760.751282 2460.036865,747.000610 
	C2442.179199,726.266907 2426.101074,704.169678 2413.663086,679.734375 
	C2402.256836,657.326050 2391.993408,634.424316 2387.484375,609.342346 
	C2384.428711,592.345947 2380.204590,575.558533 2377.200928,558.554382 
	C2375.667725,549.873596 2375.004395,540.913391 2375.111816,532.093628 
	C2375.370605,510.874634 2376.263428,489.662018 2377.052490,468.452484 
	C2377.148682,465.864105 2378.175781,463.310303 2378.813477,459.840942 
M2797.682373,340.896545 
	C2795.268555,339.906525 2792.820312,338.991943 2790.446777,337.913269 
	C2780.831299,333.543610 2771.617432,327.605011 2761.545410,325.093048 
	C2747.916504,321.694061 2733.681885,319.991241 2719.620117,319.279663 
	C2707.129150,318.647583 2694.450928,319.774567 2681.985352,321.232971 
	C2672.906250,322.295135 2663.558105,323.994537 2655.169189,327.448090 
	C2633.138672,336.517395 2612.645752,348.177185 2596.026367,365.937469 
	C2584.734131,378.005005 2574.891113,391.182983 2567.555420,405.725220 
	C2559.283447,422.123199 2554.145752,439.989227 2550.777832,458.091888 
	C2548.614990,469.716125 2548.157471,481.652954 2546.824219,493.437073 
	C2544.042969,518.019470 2545.873047,542.447266 2551.260010,566.391479 
	C2556.866211,591.310242 2564.430908,615.492065 2579.489990,637.047302 
	C2588.169189,649.470642 2598.961670,659.836914 2609.708984,669.619141 
	C2622.146484,680.939819 2637.296875,689.545776 2654.140625,694.775452 
	C2679.602051,702.680725 2705.452393,705.182922 2731.616455,702.017883 
	C2753.202637,699.406677 2774.005127,693.325256 2793.276367,682.499023 
	C2809.623535,673.315491 2823.971680,661.567627 2835.854004,647.477844 
	C2848.828125,632.093689 2858.471436,614.252441 2865.751465,595.373474 
	C2868.719238,587.677490 2871.599121,579.795776 2873.137695,571.734985 
	C2875.652344,558.558228 2878.282227,545.196106 2878.607422,531.857056 
	C2879.106445,511.387299 2878.902588,490.740540 2876.712891,470.414917 
	C2874.921631,453.787231 2871.709717,437.120453 2863.994629,421.638580 
	C2857.974121,409.556793 2853.123535,397.021118 2845.373291,385.705383 
	C2832.970459,367.596680 2816.470215,354.211029 2797.682373,340.896545 
z"/>
<path fill="#FDFCFC" opacity="1.000000" stroke="none" 
	d="
M2163.674316,710.000183 
	C2163.674316,753.920410 2163.674316,796.840515 2163.674316,840.387024 
	C2107.300781,840.387024 2051.780762,840.387024 1995.574463,840.387024 
	C1995.574463,621.650635 1995.574463,402.894348 1995.574463,183.710052 
	C2051.500244,183.710052 2107.049072,183.710052 2163.654297,183.710052 
	C2163.654297,220.495483 2163.654297,256.935974 2163.654297,293.376465 
	C2164.310303,293.520813 2164.966309,293.665161 2165.622314,293.809509 
	C2167.415771,289.629211 2169.323730,285.493500 2170.970703,281.256378 
	C2172.697266,276.814606 2173.527100,271.903259 2175.866455,267.840820 
	C2188.766357,245.438858 2204.350342,225.270691 2225.694336,210.105621 
	C2252.166504,191.296997 2281.414795,181.975113 2314.075439,183.175812 
	C2330.671143,183.785934 2347.308105,183.282547 2364.594971,183.282547 
	C2364.794678,186.943008 2365.089355,189.851334 2365.091309,192.759872 
	C2365.120850,237.755356 2365.126221,282.750854 2365.101807,327.746338 
	C2365.095947,338.635193 2364.761963,338.991791 2353.839355,338.997040 
	C2294.511963,339.025574 2235.184570,339.010590 2175.857178,339.010590 
	C2172.205322,339.010590 2168.553711,339.010590 2163.674316,339.010590 
	C2163.674316,462.585083 2163.674316,585.792603 2163.674316,710.000183 
z"/>
<path fill="#6B7F7F" opacity="1.000000" stroke="none" 
	d="
M1596.271729,14.745730 
	C1595.927124,13.766111 1595.916870,13.428055 1595.950928,12.584640 
	C1601.258301,13.834357 1606.521118,15.589435 1611.866211,18.134792 
	C1606.834351,17.745815 1601.720215,16.566555 1596.271729,14.745730 
z"/>
<path fill="#6B7F7F" opacity="1.000000" stroke="none" 
	d="
M1616.923584,20.075451 
	C1616.161133,20.637646 1615.776855,20.452705 1615.484619,19.661652 
	C1616.022217,19.416271 1616.597412,19.507195 1616.923584,20.075451 
z"/>
<path fill="#4FF9B8" opacity="1.000000" stroke="none" 
	d="
M536.001709,31.998310 
	C535.564880,31.743307 535.126221,31.490070 534.687622,31.236839 
	C535.222717,31.202120 535.757874,31.167395 536.142639,31.569565 
	C535.992310,32.006462 536.000000,32.000072 536.001709,31.998310 
z"/>
</svg>
